# xmcd
#
# Track frame offsets: 
#        150
#        25750
#        47205
#        71300
#        95790
#        129305
#        144812
#
# Disc length: 2489 seconds
#
# Revision: 1
# Processed by: cddbd v1.5.1PL0 Copyright (c) Steve Scherf et al.
# Submitted via: ExactAudioCopy v0.95a4
#
DISCID=5709b707
DTITLE=Luther Vandross - Busy Body
DYEAR=1983
DGENRE=R&B
TTITLE0=I Wanted Your Love
TTITLE1=Busy Body
TTITLE2=I'll Let You Slide
TTITLE3=Make Me A Beliver
TTITLE4=For The Sweetness Of Your Love
TTITLE5=How Many Times Can We Say Goodbye
TTITLE6=Superstar/Until You Come To Me (That's What I'm Gonna Do)
EXTD=
EXTT0=
EXTT1=
EXTT2=
EXTT3=
EXTT4=
EXTT5=
EXTT6=
PLAYORDER=
